# xmcd CD database file
# Copyright (C) 1993-1998 Ti Kan
#
# Track frame offsets:
#  150
#  32840
#  53007
#  86460
#  112567
#  134565
#  160142
#  184732
#
# Disc length: 3100 seconds
#
# Revision: 1
# Processed by: cddbd v1.4b41PL1 Copyright (c) Steve Scherf et al.
# Submitted via: CDWizzard Release:4.35
#
DISCID=5b0c1a08
DTITLE=Jimmy McGriff - The Starting Five
DYEAR=1900
DGENRE=
TTITLE0=Movin' On
TTITLE1=Doggone
TTITLE2=I'm Getting Sentimental Over You
TTITLE3=BGO
TTITLE4=You Belong to Me
TTITLE5=Granny's Lane
TTITLE6=Georgia On My Mind
TTITLE7=Hittin' The Jug
EXTD=
EXTT0=
EXTT1=
EXTT2=
EXTT3=
EXTT4=
EXTT5=
EXTT6=
EXTT7=
PLAYORDER=
